<!-- Generated by IcoMoon.io -->
<svg version="1.1" xmlns="http://www.w3.org/2000/svg" width="37" height="32" viewBox="0 0 37 32">
<title>Email</title>
<path d="M19.623 26.432c0-0.599 0.073-1.182 0.16-1.762h-16.213v-17.623l14.272 8.811 14.272-8.809v8.969c1.339 0.228 2.538 0.671 3.617 1.296l-0.052-0.028v-13.762c0-1.938-1.605-3.525-3.566-3.525h-28.549c-1.961 0-3.566 1.586-3.566 3.525v21.145c0 1.938 1.605 3.525 3.568 3.525h16.217c-0.093-0.524-0.151-1.133-0.16-1.754l-0-0.009zM32.114 3.525l-14.274 8.809-14.274-8.809h28.544zM28.098 32l-4.907-5.287 2.071-2.043 2.834 2.802 6.407-6.327 2.069 2.485-8.473 8.37z"></path>
</svg>
