<!-- Generated by IcoMoon.io -->
<svg version="1.1" xmlns="http://www.w3.org/2000/svg" width="37" height="32" viewBox="0 0 37 32">
<title>Telegram</title>
<path d="M7.877 19.36l-5.717-1.922c-0.064-0.027-0.219-0.089-0.293-0.126-0.162-0.078-0.382-0.194-0.61-0.357-0.423-0.299-1.113-0.921-1.239-1.927-0.16-1.264 0.779-2.032 1.189-2.311l-0.015 0.010c0.298-0.205 0.623-0.375 0.998-0.515l30.071-11.797c0.153-0.062 0.309-0.119 0.466-0.167l-0.037 0.011c0.374-0.125 0.767-0.209 1.194-0.248 0.423-0.032 1.090-0.014 1.689 0.375 0.702 0.455 0.999 1.209 0.999 2v-0.001c0 0.005 0 0.011 0 0.016 0 0.088-0.008 0.173-0.023 0.248l-5.362 27.019c-0.018 0.083-0.043 0.163-0.072 0.231v0.005l-0.005 0.007-0.005 0.014-0.016 0.041c-0.231 0.507-0.581 0.955-1.015 1.307-0.379 0.304-0.887 0.571-1.527 0.663-0.645 0.085-1.328-0.023-2.032-0.329-0.101-0.043-0.194-0.098-0.281-0.167l-5.87-4.498-5.088 3.173c-0.169 0.112-0.354 0.201-0.546 0.27l0.015-0.005c-0.221 0.078-0.459 0.12-0.707 0.12-0.395 0-0.765-0.107-1.073-0.289-0.201-0.128-0.373-0.293-0.521-0.478-0.288-0.368-0.549-0.905-0.8-1.691-0.199-0.64-1.111-2.866-2.016-5.026l-1.515-3.6c-0.082-0.009-0.16-0.030-0.238-0.055zM33.294 2.907h-0.005c-0.007 0.003-0.022 0.010-0.037 0.015l-0.008 0.003-30.087 11.803c-0.005 0.003-0.020 0.009-0.036 0.015l-0.010 0.003-0.018 0.005c-0.068 0.027-0.122 0.052-0.174 0.078l0.011-0.005c0.042 0.024 0.093 0.049 0.145 0.072l0.010 0.004 5.646 1.902c0.111 0.037 0.207 0.084 0.296 0.14l-0.005-0.003 18.672-10.93c0.228-0.141 0.49-0.263 0.768-0.352l0.025-0.007c0.184-0.064 0.395-0.101 0.616-0.101 0.194 0 0.38 0.028 0.557 0.081l-0.014-0.004c0.556 0.179 0.968 0.651 1.057 1.23l0.001 0.009c0.066 0.249 0.069 0.512 0.005 0.761-0.126 0.494-0.471 0.88-0.789 1.175-0.267 0.251-3.765 3.623-7.216 6.953l-5.527 5.339 10.555 8.091c0.111 0.048 0.239 0.076 0.375 0.076 0.027 0 0.053-0.001 0.079-0.003l-0.003 0c0.081-0.011 0.153-0.043 0.211-0.092l-0.001 0.001c0.072-0.062 0.134-0.133 0.183-0.213l0.002-0.004h0.005l5.195-26.201c-0.165 0.041-0.325 0.091-0.48 0.155h-0.005zM18.080 25.189l-2.107-1.616-0.51 3.246 2.617-1.63zM14.041 20.37l8.542-8.242-11.721 6.862 0.064 0.146c0.738 1.746 1.47 3.497 2.194 5.25l0.507-3.237c0.049-0.31 0.198-0.579 0.413-0.779l0.001-0.001z"></path>
</svg>
