<!-- Generated by IcoMoon.io -->
<svg version="1.1" xmlns="http://www.w3.org/2000/svg" width="32" height="32" viewBox="0 0 32 32">
<title>Whatsapp</title>
<path d="M23.618 18.784c-0.414-0.178-2.466-1.020-2.848-1.134-0.382-0.12-0.662-0.178-0.94 0.178-0.28 0.35-1.072 1.134-1.322 1.37-0.242 0.236-0.488 0.264-0.9 0.090-2.45-1.026-4.060-1.832-5.672-4.152-0.428-0.62 0.426-0.574 1.224-1.908 0.136-0.234 0.068-0.434-0.038-0.61-0.106-0.178-0.938-1.894-1.286-2.594-0.336-0.68-0.684-0.586-0.938-0.6-0.24-0.012-0.518-0.012-0.798-0.012-0.428 0.006-0.817 0.169-1.111 0.435l0.002-0.001c-0.382 0.352-1.46 1.198-1.46 2.914s1.494 3.38 1.698 3.614c0.212 0.234 2.938 3.756 7.124 5.272 2.648 0.958 3.684 1.040 5.008 0.876 0.804-0.102 2.464-0.844 2.81-1.664 0.344-0.816 0.344-1.516 0.24-1.662-0.1-0.156-0.38-0.244-0.792-0.412z"></path>
<path d="M30.758 9.8c-1.658-3.876-4.682-6.9-8.454-8.518l-0.104-0.040c-1.82-0.785-3.94-1.242-6.166-1.242-0.012 0-0.024 0-0.036 0h-0.070c-8.801 0.019-15.928 7.158-15.928 15.962 0 0.039 0 0.079 0 0.118l-0-0.006c0.010 2.48 0.604 4.94 1.714 7.14v5.428c0 0.908 0.736 1.644 1.644 1.644h5.432c2.2 1.11 4.66 1.704 7.14 1.714h0.074c2.14 0 4.214-0.414 6.168-1.226 1.982-0.836 3.675-1.984 5.101-3.401l-0.001 0.001c2.912-2.885 4.718-6.883 4.728-11.302v-0.002c0-0.030 0-0.065 0-0.101 0-2.227-0.457-4.348-1.282-6.273l0.040 0.104zM25.36 25.442c-2.389 2.376-5.682 3.844-9.318 3.844-0.015 0-0.029-0-0.044-0h-0.058c-2.264-0.012-4.391-0.585-6.253-1.589l0.071 0.035-0.3-0.16h-5.030v-5.032l-0.16-0.3c-0.968-1.79-1.542-3.917-1.554-6.176v-0.004c-0-0.031-0-0.068-0-0.104 0-3.636 1.469-6.928 3.847-9.316l-0 0c2.391-2.423 5.71-3.924 9.38-3.926h0.060c0.010-0 0.022-0 0.033-0 3.66 0 6.972 1.487 9.366 3.89l0 0c2.403 2.394 3.89 5.706 3.89 9.366 0 0.032-0 0.063-0 0.095l0-0.005c-0.009 3.671-1.511 6.989-3.931 9.381l-0.001 0.001z"></path>
</svg>
