<svg aria-hidden="true" style="position: absolute; width: 0; height: 0; overflow: hidden;" version="1.1" xmlns="http://www.w3.org/2000/svg" xmlns:xlink="http://www.w3.org/1999/xlink">
<defs>
<symbol id="icon-day" viewBox="0 0 68 32">
<path fill="#000" style="fill: var(--color1, #000)" d="M16 0h36c8.837 0 16 7.163 16 16s-7.163 16-16 16h-36c-8.837 0-16-7.163-16-16s7.163-16 16-16z"></path>
<path fill="#fff" style="fill: var(--color2, #fff)" d="M46.666 5.778v-0.444c0-0.737 0.597-1.334 1.334-1.334s1.334 0.597 1.334 1.334v0 0.444c0 0.737-0.597 1.334-1.334 1.334s-1.334-0.597-1.334-1.334v0zM55.556 16c0 4.173-3.383 7.556-7.556 7.556s-7.556-3.383-7.556-7.556v0c0-4.173 3.383-7.556 7.556-7.556s7.556 3.383 7.556 7.556v0zM52.888 16c0-2.7-2.188-4.888-4.888-4.888s-4.888 2.188-4.888 4.888v0c0 2.7 2.188 4.888 4.888 4.888s4.888-2.188 4.888-4.888v0zM39.502 9.388c0.243 0.253 0.585 0.41 0.963 0.41 0.738 0 1.336-0.598 1.336-1.336 0-0.379-0.158-0.721-0.411-0.964l-0.444-0.444c-0.242-0.242-0.576-0.391-0.945-0.391-0.738 0-1.336 0.598-1.336 1.336 0 0.369 0.15 0.703 0.391 0.945v0l0.446 0.444zM39.502 22.61l-0.446 0.444c-0.242 0.242-0.391 0.576-0.391 0.945 0 0.738 0.598 1.336 1.336 1.336 0.369 0 0.703-0.15 0.945-0.391v0l0.444-0.446c0.221-0.238 0.356-0.557 0.356-0.908 0-0.738-0.598-1.336-1.336-1.336-0.351 0-0.67 0.135-0.909 0.357l0.001-0.001zM55.556 9.778c0 0 0 0 0 0 0.368 0 0.701-0.149 0.942-0.39v0l0.446-0.444c0.242-0.242 0.391-0.576 0.391-0.945 0-0.738-0.598-1.336-1.336-1.336-0.369 0-0.703 0.15-0.945 0.391l-0.444 0.444c-0.243 0.242-0.393 0.576-0.393 0.946 0 0.737 0.597 1.334 1.334 1.334 0.002 0 0.004 0 0.006 0h-0zM56.498 22.612c-0.243-0.253-0.585-0.41-0.963-0.41-0.738 0-1.336 0.598-1.336 1.336 0 0.379 0.158 0.721 0.411 0.964l0.444 0.444c0.242 0.242 0.576 0.391 0.945 0.391 0.738 0 1.336-0.598 1.336-1.336 0-0.369-0.15-0.703-0.391-0.945v0l-0.446-0.444zM39.112 16c0-0.737-0.597-1.334-1.334-1.334v0h-0.444c-0.737 0-1.334 0.597-1.334 1.334s0.597 1.334 1.334 1.334h0.444c0.737 0 1.334-0.597 1.334-1.334v0zM48 24.888c-0.737 0-1.334 0.597-1.334 1.334v0 0.444c0 0.737 0.597 1.334 1.334 1.334s1.334-0.597 1.334-1.334v0-0.444c0-0.737-0.597-1.334-1.334-1.334v0zM58.666 14.668h-0.444c-0.015-0.001-0.033-0.001-0.052-0.001-0.737 0-1.334 0.597-1.334 1.334s0.597 1.334 1.334 1.334c0.018 0 0.036-0 0.054-0.001l-0.003 0h0.444c0.737 0 1.334-0.597 1.334-1.334s-0.597-1.334-1.334-1.334v0z"></path>
</symbol>
<symbol id="icon-night" viewBox="0 0 68 32">
<path fill="#000" style="fill: var(--color1, #000)" d="M16 0h36c8.837 0 16 7.163 16 16s-7.163 16-16 16h-36c-8.837 0-16-7.163-16-16s7.163-16 16-16z"></path>
<path fill="#fff" style="fill: var(--color2, #fff)" d="M18.098 15.904c-1.644-1.645-2.661-3.917-2.661-6.427 0-1.255 0.254-2.45 0.714-3.537l-0.022 0.060c-4.67 0.951-8.135 5.024-8.135 9.907 0 5.578 4.522 10.1 10.1 10.1 4.882 0 8.955-3.464 9.895-8.068l0.011-0.065c-1.027 0.437-2.221 0.69-3.475 0.69-2.51 0-4.782-1.017-6.427-2.662v0z"></path>
<path fill="#fff" style="fill: var(--color2, #fff)" d="M20.92 9.178c0.031-0.087 0.112-0.148 0.208-0.148s0.177 0.061 0.208 0.147l0 0.002 0.39 1.172c0.178 0.524 0.584 0.93 1.096 1.104l0.012 0.004 1.174 0.392c0.087 0.031 0.148 0.112 0.148 0.208s-0.061 0.177-0.147 0.208l-0.002 0-1.174 0.39c-0.524 0.178-0.93 0.584-1.104 1.096l-0.004 0.012-0.39 1.174c-0.031 0.087-0.112 0.148-0.208 0.148s-0.177-0.061-0.208-0.147l-0-0.002-0.392-1.174c-0.178-0.524-0.584-0.93-1.096-1.104l-0.012-0.004-1.172-0.39c-0.087-0.031-0.148-0.112-0.148-0.208s0.061-0.177 0.147-0.208l0.002-0 1.172-0.392c0.524-0.178 0.93-0.584 1.104-1.096l0.004-0.012 0.392-1.172zM24.020 6.098c0.021-0.056 0.075-0.096 0.137-0.096s0.116 0.039 0.137 0.095l0 0.001 0.26 0.782c0.119 0.351 0.39 0.621 0.732 0.738l0.008 0.002 0.782 0.26c0.058 0.020 0.098 0.074 0.098 0.138s-0.041 0.118-0.097 0.138l-0.001 0-0.78 0.26c-0.35 0.119-0.621 0.39-0.738 0.732l-0.002 0.008-0.26 0.78c-0.019 0.059-0.074 0.101-0.139 0.101s-0.12-0.042-0.139-0.1l-0-0.001-0.26-0.78c-0.119-0.351-0.39-0.621-0.732-0.738l-0.008-0.002-0.78-0.26c-0.058-0.020-0.098-0.074-0.098-0.138s0.041-0.118 0.097-0.138l0.001-0 0.78-0.26c0.351-0.119 0.621-0.389 0.738-0.732l0.002-0.008 0.26-0.78z"></path>
</symbol>
</defs>
</svg>
