<svg width="34" height="16" fill="none" xmlns="http://www.w3.org/2000/svg"><rect width="34" height="16" rx="8" fill="#000"/><path d="M23.333 2.889v-.222a.667.667 0 0 1 1.334 0v.222a.667.667 0 0 1-1.334 0ZM27.778 8a3.778 3.778 0 1 1-7.556 0 3.778 3.778 0 0 1 7.556 0Zm-1.334 0a2.444 2.444 0 1 0-4.888 0 2.444 2.444 0 0 0 4.888 0Zm-6.693-3.306a.668.668 0 1 0 .944-.945l-.222-.222a.668.668 0 0 0-.945.945l.223.222Zm0 6.611-.223.222a.667.667 0 0 0 .945.945l.222-.223a.668.668 0 0 0-.944-.944Zm8.027-6.416a.666.666 0 0 0 .471-.195l.223-.222a.668.668 0 0 0-.945-.945l-.222.222a.667.667 0 0 0 .473 1.14Zm.471 6.417a.668.668 0 1 0-.944.945l.222.222a.668.668 0 0 0 .945-.945l-.223-.222ZM19.556 8a.667.667 0 0 0-.667-.667h-.222a.667.667 0 1 0 0 1.334h.222A.667.667 0 0 0 19.556 8ZM24 12.444a.667.667 0 0 0-.667.667v.222a.667.667 0 0 0 1.334 0v-.222a.667.667 0 0 0-.667-.667Zm5.333-5.11h-.222a.667.667 0 1 0 0 1.333h.222a.667.667 0 1 0 0-1.334Z" fill="#fff"/></svg>