<svg width="34" height="16" fill="none" xmlns="http://www.w3.org/2000/svg"><rect width="34" height="16" rx="8" fill="#000"/><path d="M9.049 7.952A4.545 4.545 0 0 1 8.064 3 5.05 5.05 0 1 0 14 8.937a4.545 4.545 0 0 1-4.951-.986Z" fill="#fff"/><path d="M10.46 4.589a.11.11 0 0 1 .208 0l.195.586a.876.876 0 0 0 .554.554l.587.196a.11.11 0 0 1 0 .208l-.587.195a.876.876 0 0 0-.554.554l-.195.587a.11.11 0 0 1-.208 0l-.196-.587a.875.875 0 0 0-.554-.554l-.586-.195a.11.11 0 0 1 0-.208l.586-.196a.876.876 0 0 0 .554-.554l.196-.586Zm1.55-1.54a.073.073 0 0 1 .137 0l.13.391a.583.583 0 0 0 .37.37l.391.13a.073.073 0 0 1 0 .138l-.39.13a.584.584 0 0 0-.37.37l-.13.39a.073.073 0 0 1-.139 0l-.13-.39a.583.583 0 0 0-.37-.37l-.39-.13a.073.073 0 0 1 0-.138l.39-.13a.583.583 0 0 0 .37-.37l.13-.39Z" fill="#fff"/></svg>