<svg width="16" height="14" fill="none" xmlns="http://www.w3.org/2000/svg"><path fill-rule="evenodd" clip-rule="evenodd" d="M3.446 8.47c.034.011.068.02.104.024l.663 1.575c.396.945.795 1.919.882 2.199.11.344.224.579.35.74.065.081.14.153.228.209a.935.935 0 0 0 .772.076c.084-.03.165-.069.239-.118l.004-.002 2.222-1.386 2.568 1.968c.038.03.079.054.123.073.308.134.607.181.889.144.28-.04.502-.157.668-.29.19-.154.343-.35.444-.572l.007-.018.002-.006.002-.003v-.002a.595.595 0 0 0 .032-.105L15.99 1.159A.59.59 0 0 0 16 1.044c0-.346-.13-.676-.437-.875-.262-.17-.554-.178-.739-.164a2.315 2.315 0 0 0-.506.104c-.069.021-.137.046-.204.073l-.009.004L.96 5.343H.958a1.984 1.984 0 0 0-.43.221c-.179.122-.59.458-.52 1.011.055.44.357.712.542.843.1.071.196.122.267.156.032.016.1.043.128.055l.008.002 2.493.839Zm11.12-7.198h-.002a.531.531 0 0 1-.02.008L1.381 6.444a.648.648 0 0 1-.02.008l-.008.002a.889.889 0 0 0-.071.032.67.67 0 0 0 .068.033l2.47.832a.59.59 0 0 1 .127.06l8.161-4.778.008-.004a1.574 1.574 0 0 1 .347-.157.846.846 0 0 1 .507-.01.672.672 0 0 1 .463.542c.029.109.03.224.002.333-.055.216-.206.385-.345.514-.117.11-1.647 1.585-3.157 3.042L7.88 8.875l-.365.354 4.618 3.54a.42.42 0 0 0 .197.032.18.18 0 0 0 .092-.04.39.39 0 0 0 .081-.095h.002l2.273-11.463c-.072.018-.142.04-.21.068h-.002ZM7.91 11.02l-.922-.707-.223 1.42 1.145-.713ZM6.143 8.912l.917-.885 2.055-1.983.765-.738-5.128 3.002.028.064c.323.764.643 1.53.96 2.297l.222-1.416a.585.585 0 0 1 .181-.341Z" fill="#000"/></svg>