<svg id="Слой_1" data-name="Слой 1" xmlns="http://www.w3.org/2000/svg" viewBox="0 0 230 44"><defs><style>.cls-1{fill:#0071bc}</style></defs><path d="M1 1h3v17.93a37.29 37.29 0 0 0 .12 4 6.63 6.63 0 0 0 1 2.94 6 6 0 0 0 2.48 2 7.8 7.8 0 0 0 3.37.79A6.63 6.63 0 0 0 13.8 28a6.38 6.38 0 0 0 2.26-1.74 7.1 7.1 0 0 0 1.33-2.68 22.44 22.44 0 0 0 .3-4.64V1h3v17.93a21.67 21.67 0 0 1-.78 6.42 8.7 8.7 0 0 1-3.11 4.27 8.89 8.89 0 0 1-5.64 1.82A10.76 10.76 0 0 1 5 29.72a8.24 8.24 0 0 1-3.44-4.54A24.19 24.19 0 0 1 1 18.93ZM27.54 8.73h2.83v4a11.36 11.36 0 0 1 3.85-3.45 10.2 10.2 0 0 1 4.86-1.15 10.84 10.84 0 0 1 8 3.37 11.16 11.16 0 0 1 3.32 8.11 11.39 11.39 0 0 1-3.29 8.23 11.11 11.11 0 0 1-12.78 2.29 12.2 12.2 0 0 1-4-3.25v11.85h-2.79Zm11.31 2.16a8.35 8.35 0 0 0-6.18 2.56 8.75 8.75 0 0 0-2.5 6.37 9 9 0 0 0 1.12 4.5 8.13 8.13 0 0 0 3.2 3.17 8.94 8.94 0 0 0 4.4 1.16 8.38 8.38 0 0 0 4.28-1.17 8.72 8.72 0 0 0 3.19-3.3 8.89 8.89 0 0 0 0-8.87 8.5 8.5 0 0 0-7.52-4.42ZM55.74 8.73h2.83v4a11.27 11.27 0 0 1 3.85-3.45 10.2 10.2 0 0 1 4.86-1.15 10.81 10.81 0 0 1 8 3.37 11.13 11.13 0 0 1 3.33 8.11 11.36 11.36 0 0 1-3.3 8.23 11.1 11.1 0 0 1-12.77 2.29 12.09 12.09 0 0 1-4-3.25v11.85h-2.8Zm11.31 2.16a8.33 8.33 0 0 0-6.18 2.56 8.75 8.75 0 0 0-2.5 6.37 9.1 9.1 0 0 0 1.11 4.5 8.22 8.22 0 0 0 3.21 3.17 8.94 8.94 0 0 0 4.4 1.16 8.32 8.32 0 0 0 4.27-1.17 8.75 8.75 0 0 0 3.2-3.3 8.89 8.89 0 0 0 0-8.87 8.5 8.5 0 0 0-7.52-4.42ZM102.39 23.41l2.38 1.25a12.86 12.86 0 0 1-2.71 3.71 10.7 10.7 0 0 1-3.45 2.15 12.08 12.08 0 0 1-4.34.74 10.52 10.52 0 0 1-8.41-3.52 11.91 11.91 0 0 1-3-8 11.74 11.74 0 0 1 2.57-7.44 10.45 10.45 0 0 1 8.7-4.16 10.82 10.82 0 0 1 9 4.26 11.87 11.87 0 0 1 2.43 7.5H85.74a9 9 0 0 0 2.44 6.28A7.81 7.81 0 0 0 94 28.65a9.39 9.39 0 0 0 3.27-.58 8.52 8.52 0 0 0 2.73-1.55 12.85 12.85 0 0 0 2.39-3.11Zm0-5.92a9.45 9.45 0 0 0-1.65-3.61 7.75 7.75 0 0 0-2.86-2.18 8.76 8.76 0 0 0-3.74-.83A8.07 8.07 0 0 0 88.59 13 9.33 9.33 0 0 0 86 17.49Z"/><path class="cls-1" d="m146.52 18.07-2.34 1.8a12.73 12.73 0 0 0-4.65-3.87 13.58 13.58 0 0 0-6-1.3 13.19 13.19 0 0 0-6.53 1.75 12.22 12.22 0 0 0-4.71 4.55 12.64 12.64 0 0 0-1.66 6.47 12.14 12.14 0 0 0 3.72 9.06 12.92 12.92 0 0 0 9.4 3.63 13.2 13.2 0 0 0 10.43-4.88l2.34 1.77a14.75 14.75 0 0 1-5.52 4.4 17.33 17.33 0 0 1-7.43 1.55q-7.8 0-12.3-5.19a15.67 15.67 0 0 1-3.77-10.58 14.71 14.71 0 0 1 4.57-11 15.8 15.8 0 0 1 11.45-4.45 16.74 16.74 0 0 1 7.48 1.68 14.4 14.4 0 0 1 5.52 4.61ZM162.41 19.73a10.87 10.87 0 0 1 8.41 3.67 11.81 11.81 0 0 1-.17 16 11.61 11.61 0 0 1-16.5 0 11.75 11.75 0 0 1-.17-16 10.86 10.86 0 0 1 8.43-3.67Zm0 2.76a8.18 8.18 0 0 0-6.06 2.6 8.71 8.71 0 0 0-2.53 6.3 8.92 8.92 0 0 0 1.18 4.44 8 8 0 0 0 3.08 3.17 8.87 8.87 0 0 0 8.63 0 8.09 8.09 0 0 0 3.12-3.18 8.92 8.92 0 0 0 1.17-4.43 8.72 8.72 0 0 0-2.54-6.3 8.19 8.19 0 0 0-6.06-2.6ZM201 11.81v30.44h-2.78v-3.77a12.16 12.16 0 0 1-4 3.25 11.14 11.14 0 0 1-12.8-2.29 11.36 11.36 0 0 1-3.3-8.23 11.11 11.11 0 0 1 3.33-8.11 10.87 10.87 0 0 1 8-3.37 10.32 10.32 0 0 1 4.89 1.15 11.08 11.08 0 0 1 3.85 3.45V11.81Zm-11.29 10.64a8.6 8.6 0 0 0-4.36 1.16 8.49 8.49 0 0 0-3.17 3.26A8.83 8.83 0 0 0 181 31.3a9 9 0 0 0 1.19 4.44 8.58 8.58 0 0 0 3.2 3.29 8.29 8.29 0 0 0 4.3 1.18 8.84 8.84 0 0 0 4.4-1.17 8.21 8.21 0 0 0 3.19-3.16 9 9 0 0 0 1.12-4.5 8.76 8.76 0 0 0-2.51-6.38 8.29 8.29 0 0 0-6.18-2.55ZM225.89 35l2.38 1.25a13 13 0 0 1-2.7 3.71 10.85 10.85 0 0 1-3.46 2.15 12.08 12.08 0 0 1-4.34.74 10.5 10.5 0 0 1-8.41-3.53 12 12 0 0 1-.46-15.41 10.49 10.49 0 0 1 8.71-4.15 10.86 10.86 0 0 1 9 4.25 12 12 0 0 1 2.39 7.48h-19.76a9 9 0 0 0 2.44 6.28 7.81 7.81 0 0 0 5.84 2.44 9.39 9.39 0 0 0 3.27-.58 8.46 8.46 0 0 0 2.7-1.55 13.11 13.11 0 0 0 2.4-3.08Zm0-5.92a9.24 9.24 0 0 0-1.65-3.61 7.75 7.75 0 0 0-2.86-2.18 8.75 8.75 0 0 0-3.73-.83 8 8 0 0 0-5.56 2.08 9.41 9.41 0 0 0-2.57 4.54Z"/><path d="M109.7 8.73h2.88v22h-2.88Z"/><path d="M113.74 17.58a13.78 13.78 0 0 1 3.63-4.91 12.74 12.74 0 0 1 5.39-2.67l-.69-2.88a14.72 14.72 0 0 0-6.45 3.13 16.91 16.91 0 0 0-4.56 6.19 17.59 17.59 0 0 0-1.36 4.41v3.21h2.88a17.33 17.33 0 0 1 1.16-6.48Z"/></svg>