<svg width="16" height="16" fill="none" xmlns="http://www.w3.org/2000/svg"><path d="M11.809 9.392c-.207-.089-1.233-.51-1.424-.567-.191-.06-.331-.089-.47.089-.14.175-.536.567-.661.685-.121.118-.244.132-.45.045-1.225-.513-2.03-.916-2.836-2.076-.214-.31.213-.287.612-.954.068-.117.034-.217-.019-.305-.053-.089-.469-.947-.643-1.297-.168-.34-.342-.293-.469-.3-.12-.006-.259-.006-.399-.006a.846.846 0 0 0-.555.217c-.191.176-.73.599-.73 1.457 0 .858.747 1.69.849 1.807.106.117 1.469 1.878 3.562 2.636 1.324.479 1.842.52 2.504.438.402-.051 1.232-.422 1.405-.832.172-.408.172-.758.12-.831-.05-.078-.19-.122-.396-.206Z" fill="#000"/><path d="M15.379 4.9A8.005 8.005 0 0 0 11.1.621 7.962 7.962 0 0 0 8 0h-.036A7.981 7.981 0 0 0 0 8.037c.005 1.24.302 2.47.857 3.57v2.714c0 .454.368.822.822.822h2.716c1.1.555 2.33.852 3.57.857h.037c1.07 0 2.107-.207 3.084-.613a7.936 7.936 0 0 0 2.55-1.7A7.98 7.98 0 0 0 16 8.035a7.97 7.97 0 0 0-.621-3.135Zm-2.699 7.821A6.608 6.608 0 0 1 8 14.643h-.03a6.668 6.668 0 0 1-3.091-.777l-.15-.08H2.214V11.27l-.08-.15a6.666 6.666 0 0 1-.777-3.09A6.602 6.602 0 0 1 3.28 3.32 6.593 6.593 0 0 1 7.97 1.357h.03a6.611 6.611 0 0 1 4.7 1.945 6.61 6.61 0 0 1 1.945 4.728 6.617 6.617 0 0 1-1.966 4.691Z" fill="#000"/></svg>